<?xml version="1.0" encoding="UTF-8"?>
<svg width="20px" height="20px" viewBox="0 0 20 20" version="1.1" xmlns="http://www.w3.org/2000/svg" xmlns:xlink="http://www.w3.org/1999/xlink">
    <!-- Generator: Sketch 58 (84663) - https://sketch.com -->
    <title>plus-circle</title>
    <desc>Created with Sketch.</desc>
    <defs>
        <path d="M15,11 L13,11 L13,9 C13,8.45 12.55,8 12,8 C11.45,8 11,8.45 11,9 L11,11 L9,11 C8.45,11 8,11.45 8,12 C8,12.55 8.45,13 9,13 L11,13 L11,15 C11,15.55 11.45,16 12,16 C12.55,16 13,15.55 13,15 L13,13 L15,13 C15.55,13 16,12.55 16,12 C16,11.45 15.55,11 15,11 M12,20 C7.589,20 4,16.411 4,12 C4,7.589 7.589,4 12,4 C16.411,4 20,7.589 20,12 C20,16.411 16.411,20 12,20 M12,2 C6.486,2 2,6.486 2,12 C2,17.514 6.486,22 12,22 C17.514,22 22,17.514 22,12 C22,6.486 17.514,2 12,2" id="path-1"></path>
    </defs>
    <g id="Page-2" stroke="none" stroke-width="1" fill="none" fill-rule="evenodd">
        <g id="plus-circle" transform="translate(-2.000000, -2.000000)">
            <mask id="mask-2" fill="white">
                <use xlink:href="#path-1"></use>
            </mask>
            <use id="🎨-Icon-Сolor" fill="#FFFFFF" fill-rule="evenodd" xlink:href="#path-1"></use>
        </g>
    </g>
</svg>