<?xml version="1.0" encoding="UTF-8"?>
<svg width="29px" height="25px" viewBox="0 0 33 29" version="1.1" xmlns="http://www.w3.org/2000/svg" xmlns:xlink="http://www.w3.org/1999/xlink">
    <!-- Generator: Sketch 58 (84663) - https://sketch.com -->
    <title>email</title>
    <desc>Created with Sketch.</desc>
    <defs>
        <path d="M22.9583333,21.75 L6.04166667,21.75 C5.375875,21.75 4.83333333,21.2086667 4.83333333,20.5416667 L4.83333333,8.76041667 L13.775,15.4666667 C13.9900833,15.6285833 14.2450417,15.7083333 14.5,15.7083333 C14.7549583,15.7083333 15.0099167,15.6285833 15.225,15.4666667 L24.1666667,8.76041667 L24.1666667,20.5416667 C24.1666667,21.2086667 23.624125,21.75 22.9583333,21.75 L22.9583333,21.75 Z M22.152375,7.25 L14.5,12.9895833 L6.847625,7.25 L22.152375,7.25 Z M22.9583333,4.83333333 L6.04166667,4.83333333 C4.04308333,4.83333333 2.41666667,6.45975 2.41666667,8.45833333 L2.41666667,20.5416667 C2.41666667,22.54025 4.04308333,24.1666667 6.04166667,24.1666667 L22.9583333,24.1666667 C24.9569167,24.1666667 26.5833333,22.54025 26.5833333,20.5416667 L26.5833333,8.45833333 C26.5833333,6.45975 24.9569167,4.83333333 22.9583333,4.83333333 L22.9583333,4.83333333 Z" id="path-1"></path>
    </defs>
    <g id="Page-2" stroke="none" stroke-width="1" fill="none" fill-rule="evenodd">
        <g id="email" transform="translate(2.000000, -2.000000)">
            <mask id="mask-2" fill="white">
                <use xlink:href="#path-1"></use>
            </mask>
            <use id="🎨-Icon-Сolor" fill="#FFFFFF" fill-rule="evenodd" xlink:href="#path-1"></use>
        </g>
    </g>
</svg>