<?xml version="1.0" encoding="UTF-8"?>
<svg width="18px" height="16px" viewBox="0 0 18 16" version="1.1" xmlns="http://www.w3.org/2000/svg" xmlns:xlink="http://www.w3.org/1999/xlink">
    <!-- Generator: Sketch 58 (84663) - https://sketch.com -->
    <title>map</title>
    <desc>Created with Sketch.</desc>
    <defs>
        <path d="M19,17.4541 L17,16.5561 L17,6.5461 L19,7.4441 L19,17.4541 Z M13,7.4441 L15,6.5461 L15,16.5561 L13,17.4541 L13,7.4441 Z M9,6.5461 L11,7.4441 L11,17.4541 L9,16.5561 L9,6.5461 Z M5,7.4441 L7,6.5461 L7,16.5561 L5,17.4541 L5,7.4441 Z M20.41,5.8861 L16.41,4.0881 C16.395,4.0811 16.379,4.0801 16.364,4.0741 C16.323,4.0581 16.282,4.0471 16.24,4.0361 C16.201,4.0261 16.162,4.0171 16.122,4.0131 C16.083,4.0081 16.044,4.0071 16.004,4.0071 C15.96,4.0071 15.917,4.0081 15.873,4.0131 C15.836,4.0171 15.801,4.0261 15.765,4.0351 C15.721,4.0461 15.678,4.0581 15.635,4.0741 C15.621,4.0801 15.604,4.0811 15.59,4.0881 L12,5.7011 L8.41,4.0881 C8.395,4.0811 8.379,4.0801 8.364,4.0741 C8.323,4.0581 8.282,4.0471 8.24,4.0361 C8.201,4.0261 8.162,4.0171 8.122,4.0131 C8.083,4.0081 8.044,4.0071 8.004,4.0071 C7.96,4.0071 7.917,4.0081 7.873,4.0131 C7.836,4.0171 7.801,4.0261 7.765,4.0351 C7.721,4.0461 7.678,4.0581 7.635,4.0741 C7.621,4.0801 7.604,4.0811 7.59,4.0881 L3.59,5.8861 C3.231,6.0471 3,6.4041 3,6.7981 L3,19.0001 C3,19.3391 3.172,19.6551 3.457,19.8401 C3.621,19.9461 3.81,20.0001 4,20.0001 C4.139,20.0001 4.279,19.9711 4.41,19.9121 L8,18.2991 L11.59,19.9121 C11.605,19.9191 11.621,19.9161 11.637,19.9221 C11.754,19.9691 11.875,20.0001 12,20.0001 C12.125,20.0001 12.246,19.9691 12.363,19.9221 C12.378,19.9161 12.396,19.9191 12.41,19.9121 L16,18.2991 L19.59,19.9121 C19.721,19.9711 19.861,20.0001 20,20.0001 C20.19,20.0001 20.379,19.9461 20.543,19.8401 C20.828,19.6551 21,19.3391 21,19.0001 L21,6.7981 C21,6.4041 20.769,6.0471 20.41,5.8861 L20.41,5.8861 Z" id="path-1"></path>
    </defs>
    <g id="Page-2" stroke="none" stroke-width="1" fill="none" fill-rule="evenodd">
        <g id="map" transform="translate(-3.000000, -4.000000)">
            <mask id="mask-2" fill="white">
                <use xlink:href="#path-1"></use>
            </mask>
            <use id="🎨-Icon-Сolor" fill="#FFFFFF" fill-rule="evenodd" xlink:href="#path-1"></use>
        </g>
    </g>
</svg>