<?xml version="1.0" encoding="UTF-8"?>
<svg width="29px" height="25px" viewBox="0 0 33 29" version="1.1" xmlns="http://www.w3.org/2000/svg" xmlns:xlink="http://www.w3.org/1999/xlink">
    <!-- Generator: Sketch 58 (84663) - https://sketch.com -->
    <title>phone</title>
    <desc>Created with Sketch.</desc>
    <defs>
        <path d="M7.97512083,4.83333333 C6.24237083,4.83333333 4.83345417,6.24225 4.83345417,7.975 C4.83345417,16.9021667 12.0967458,24.1666667 21.0251208,24.1666667 C22.7566625,24.1666667 24.1667875,22.75775 24.1667875,21.025 C24.1667875,20.890875 24.1583292,20.7591667 24.1414125,20.6286667 L18.5589125,19.3478333 C18.4477458,19.5605 18.3257042,19.7912917 18.2145375,20.006375 C17.6635375,21.057625 17.2647875,21.8212917 16.2473708,21.4116667 C12.2526208,20.01 8.99132917,16.7475 7.5715375,12.7044167 C7.1401625,11.755875 7.96182917,11.3257083 9.0034125,10.7819583 C9.21487083,10.6707917 9.44324583,10.5511667 9.6522875,10.4424167 L8.37145417,4.85870833 C8.23732917,4.84179167 8.10682917,4.83333333 7.97512083,4.83333333 M21.0251208,26.5833333 C10.7639542,26.5833333 2.4167875,18.2361667 2.4167875,7.975 C2.4167875,4.90945833 4.90957917,2.41666667 7.97512083,2.41666667 C8.2892875,2.41666667 8.59982917,2.44325 8.90070417,2.49520833 C9.19432917,2.54233333 9.4891625,2.61725 9.77674583,2.71633333 C10.1694542,2.852875 10.4654958,3.18275 10.5585375,3.58875 L12.2127458,10.79525 C12.3045792,11.1915833 12.1897875,11.60725 11.9070375,11.9020833 C11.7427042,12.0736667 11.7390792,12.0772917 10.2407458,12.8615 C11.4539125,15.4884167 13.5624542,17.5897083 16.1362042,18.7617917 C16.9216208,17.26225 16.9264542,17.2574167 17.0980375,17.0930833 C17.3928708,16.8103333 17.8109542,16.700375 18.2048708,16.787375 L25.4125792,18.4415833 C25.8173708,18.534625 26.1472458,18.8294583 26.2825792,19.2221667 C26.3816625,19.5073333 26.4565792,19.8021667 26.5061208,20.1054583 C26.5568708,20.4039167 26.5834542,20.71325 26.5834542,21.025 C26.5834542,24.0905417 24.0894542,26.5833333 21.0251208,26.5833333" id="path-1"></path>
    </defs>
    <g id="Page-2" stroke="none" stroke-width="1" fill="none" fill-rule="evenodd">
        <g id="phone" transform="translate(-2.000000, -2.000000)">
            <mask id="mask-2" fill="white">
                <use xlink:href="#path-1"></use>
            </mask>
            <use id="🎨-Icon-Сolor" fill="#FFFFFF" fill-rule="evenodd" xlink:href="#path-1"></use>
        </g>
    </g>
</svg>