<?xml version="1.0" encoding="UTF-8"?>
<svg width="20px" height="20px" viewBox="0 0 20 20" version="1.1" xmlns="http://www.w3.org/2000/svg" xmlns:xlink="http://www.w3.org/1999/xlink">
    <!-- Generator: Sketch 58 (84663) - https://sketch.com -->
    <title>settings-2</title>
    <desc>Created with Sketch.</desc>
    <defs>
        <path d="M11.3745,20 L12.6255,20 L12.6255,19.233 C12.6255,18.298 13.2005,17.458 14.0895,17.091 C15.0095,16.708 16.0145,16.896 16.6765,17.562 L17.2155,18.103 L18.1035,17.215 L17.5585,16.671 C16.8955,16.009 16.7085,15.005 17.0815,14.114 C17.0815,14.114 17.0825,14.113 17.0825,14.112 L17.0935,14.084 C17.4575,13.201 18.2985,12.625 19.2335,12.625 L19.9995,12.625 L19.9995,11.375 L19.2335,11.375 C18.2985,11.375 17.4575,10.8 17.0915,9.911 C16.7065,8.991 16.8955,7.986 17.5615,7.323 L18.1025,6.784 L17.2155,5.897 L16.6705,6.442 C16.0085,7.104 15.0055,7.291 14.1145,6.919 C13.2015,6.542 12.6255,5.702 12.6255,4.767 L12.6255,4 L11.3745,4 L11.3745,4.767 C11.3745,5.702 10.7995,6.542 9.9105,6.909 C8.9915,7.294 7.9865,7.105 7.3235,6.438 L6.7845,5.897 L5.8965,6.785 L6.4415,7.329 C7.1035,7.991 7.2915,8.995 6.9185,9.886 C6.5425,10.799 5.7015,11.375 4.7665,11.375 L3.9995,11.375 L3.9995,12.625 L4.7665,12.625 C5.7015,12.625 6.5425,13.2 6.9085,14.089 C7.2935,15.009 7.1045,16.014 6.4385,16.677 L5.8975,17.216 L6.7845,18.103 L7.3295,17.558 C7.9915,16.896 8.9945,16.709 9.8855,17.081 C10.7985,17.458 11.3745,18.298 11.3745,19.233 L11.3745,20 Z M12.9425,22 L11.0505,22 C10.1265,22 9.3745,21.248 9.3745,20.324 L9.3745,19.233 C9.3745,19.086 9.2575,18.985 9.1475,18.94 C9.0035,18.881 8.8495,18.869 8.7435,18.972 L7.9735,19.743 C7.3175,20.397 6.2515,20.399 5.5965,19.743 L4.2565,18.403 C3.9385,18.085 3.7645,17.663 3.7645,17.213 C3.7655,16.764 3.9405,16.342 4.2595,16.024 L5.0275,15.259 C5.1325,15.154 5.1215,15 5.0745,14.889 C5.0145,14.742 4.9145,14.625 4.7665,14.625 L3.6825,14.625 C2.7545,14.625 1.9995,13.871 1.9995,12.943 L1.9995,11.051 C1.9995,10.126 2.7515,9.375 3.6765,9.375 L4.7665,9.375 C4.9135,9.375 5.0145,9.257 5.0595,9.147 C5.1195,9.003 5.1315,8.848 5.0275,8.744 L4.2565,7.974 C3.6025,7.317 3.6025,6.251 4.2565,5.597 L5.5965,4.257 C5.9145,3.939 6.3355,3.765 6.7845,3.765 L6.7865,3.765 C7.2355,3.765 7.6585,3.94 7.9755,4.259 L8.7405,5.028 C8.8455,5.134 9.0005,5.122 9.1115,5.075 C9.2575,5.014 9.3745,4.914 9.3745,4.767 L9.3745,3.683 C9.3745,2.755 10.1295,2 11.0575,2 L12.9495,2 C13.8735,2 14.6255,2.752 14.6255,3.676 L14.6255,4.767 C14.6255,4.914 14.7425,5.015 14.8525,5.06 C14.9975,5.12 15.1515,5.133 15.2565,5.028 L16.0265,4.257 C16.6825,3.603 17.7485,3.601 18.4035,4.257 L19.7445,5.598 C20.0625,5.915 20.2365,6.337 20.2355,6.787 C20.2355,7.235 20.0605,7.658 19.7415,7.975 L18.9725,8.741 C18.8675,8.846 18.8785,9 18.9255,9.111 C18.9855,9.258 19.0855,9.375 19.2335,9.375 L20.3175,9.375 C21.2455,9.375 21.9995,10.129 21.9995,11.057 L21.9995,12.949 C21.9995,13.874 21.2485,14.625 20.3235,14.625 L19.2335,14.625 C19.0865,14.625 18.9855,14.743 18.9405,14.853 C18.9395,14.854 18.9275,14.884 18.9265,14.886 C18.8805,14.997 18.8685,15.152 18.9725,15.256 L19.7435,16.026 C20.3975,16.683 20.3975,17.749 19.7435,18.403 L18.4035,19.743 C18.0855,20.061 17.6645,20.235 17.2155,20.235 L17.2135,20.235 C16.7645,20.235 16.3415,20.06 16.0245,19.741 L15.2595,18.972 C15.1545,18.867 14.9985,18.879 14.8885,18.925 C14.7425,18.986 14.6255,19.086 14.6255,19.233 L14.6255,20.317 C14.6255,21.245 13.8705,22 12.9425,22 L12.9425,22 Z M12,10.5 C11.173,10.5 10.5,11.173 10.5,12 C10.5,12.827 11.173,13.5 12,13.5 C12.827,13.5 13.5,12.827 13.5,12 C13.5,11.173 12.827,10.5 12,10.5 M12,15.5 C10.07,15.5 8.5,13.93 8.5,12 C8.5,10.07 10.07,8.5 12,8.5 C13.93,8.5 15.5,10.07 15.5,12 C15.5,13.93 13.93,15.5 12,15.5" id="path-1"></path>
    </defs>
    <g id="Page-2" stroke="none" stroke-width="1" fill="none" fill-rule="evenodd">
        <g id="settings-2" transform="translate(-2.000000, -2.000000)">
            <mask id="mask-2" fill="white">
                <use xlink:href="#path-1"></use>
            </mask>
            <use id="🎨-Icon-Сolor" fill="#FFFFFF" fill-rule="evenodd" xlink:href="#path-1"></use>
        </g>
    </g>
</svg>